<svg xmlns="http://www.w3.org/2000/svg" viewBox="0 0 512 512"><defs><style>.cls-1{fill:#1abc9c;}.cls-2{fill:#282c34;}.cls-3{fill:#fff;}</style></defs><title>Asset 2-svg</title><g id="Layer_2" data-name="Layer 2"><g id="Layer_1-2" data-name="Layer 1"><path class="cls-1" d="M256,492.5A236.5,236.5,0,0,1,88.77,88.77,236.5,236.5,0,1,1,423.23,423.23,235,235,0,0,1,256,492.5Z"/><path class="cls-2" d="M256,39a217.06,217.06,0,0,1,84.45,417A217.06,217.06,0,0,1,171.55,56,215.48,215.48,0,0,1,256,39m0-39C114.62,0,0,114.62,0,256S114.62,512,256,512,512,397.38,512,256,397.38,0,256,0Z"/><path class="cls-3" d="M92.91,221.37A108.5,108.5,0,0,1,90.85,189q1.37-16.74,1.37-32.38a230.61,230.61,0,0,0-2.4-32.1q-2.4-17-4.11-32.66A214,214,0,0,1,84.34,63.1Q84.68,50,88.8,42.73a40.26,40.26,0,0,1,13.7-13.12,118.49,118.49,0,0,0,15.77-10.89,60.47,60.47,0,0,1,16.11,4.19,43,43,0,0,1,12.33,7.81,32.75,32.75,0,0,1,7.54,9.77,14.09,14.09,0,0,1,1,10A75.26,75.26,0,0,1,183,73.15a113.49,113.49,0,0,1,16.45,31.27,182.06,182.06,0,0,1,8.22,36q2.4,19,4.11,37.41t3.43,34.89a110.36,110.36,0,0,0,6.51,28.75q30.15-35.73,51.06-63.36t42.16-53q21.22-25.39,47.63-51.64t67.51-59.17a70.72,70.72,0,0,1,13.71,2.79l9.59,3.35a58,58,0,0,0,10.29,2.51q5.48.84,15.07-.28,3.42,6.71,5.14,9.77T487,38.26c.91,1.87,2.05,4.28,3.43,7.26s3.42,7.45,6.16,13.4a7.27,7.27,0,0,1,1.72,5.86,47.49,47.49,0,0,1-1,6.42,10.35,10.35,0,0,0-.34,4.46c.22,1.12,1.71,1.12,4.45,0a47.27,47.27,0,0,1-8.91,17A25,25,0,0,0,487,110.83q-18.51,20.1-41.13,41.32t-45.23,44.38q-22.62,23.17-43.52,48a283.6,283.6,0,0,0-35.3,52.75q-4.11,0-6.17,1.68a23.36,23.36,0,0,0-3.77,3.91l-3.43,4.46q-1.71,2.24-5.82,2.24-1.38,17.87-16.11,33.77a217.51,217.51,0,0,1-29.81,27.08,26.2,26.2,0,0,1,1.37,7.25,23.7,23.7,0,0,1-.69,5.59,45.83,45.83,0,0,0-1,5.86,29.25,29.25,0,0,0,.35,7.54A67.68,67.68,0,0,1,240.61,419,69.23,69.23,0,0,1,219,432.39,55.65,55.65,0,0,1,195,436a54.64,54.64,0,0,1-23.3-7,24.51,24.51,0,0,1-8.23-6.14q-3.44-3.9-7.19-7.53t-7.54-6.7a21.22,21.22,0,0,0-9.25-4.19,28.92,28.92,0,0,0,.34-11.72,52,52,0,0,0-3.09-11.17,32.81,32.81,0,0,0-4.79-8.37c-1.83-2.23-3.67-3.35-5.49-3.35q-2.74-14-7.19-30.43t-8.91-32.65q-4.47-16.2-7.2-31.83a129.68,129.68,0,0,1-2.06-29,17.11,17.11,0,0,0-3.08-12A31.25,31.25,0,0,1,92.91,221.37Z"/></g></g></svg>